# xmcd
#
# Track frame offsets:
#	150
#	18532
#	37620
#	53887
#	69495
#	83342
#	100125
#	118615
#	132805
#	148610
#	165367
#	178547
#	194422
#	207505
#	227205
#	247262
#	263755
#
# Disc length: 3771 seconds
#
# Revision: 1
# Processed by: cddbd v1.5.1PL2 Copyright (c) Steve Scherf et al.
# Submitted via: audiograbber 1.83.01
#
DISCID=e40eb911
DTITLE=Various Artist - Music City Now Vol. 1
DYEAR=1900
DGENRE=Country
TTITLE0=John Anderson - Bend it until it breaks
TTITLE1=The Mavericks - Call me the breeze
TTITLE2=Billy Ray Cyrus - Déjà blue
TTITLE3=Neal McCoy - For a change
TTITLE4=Patty Loveless - Here I am
TTITLE5=Little Texas - Kick a little
TTITLE6=George Ducas - Lipstick promises
TTITLE7=Bryan White - Look at me now
TTITLE8=Radney Foster - Nobody wins
TTITLE9=Mark Chesnutt - She dreams
TTITLE10=Hal Ketchum - Stay forever
TTITLE11=Lisa Brokop - Take that
TTITLE12=Mary Chapin Carpenter - Tender when I want to be
TTITLE13=Clay Walker - This woman and this man
TTITLE14=Toby Keith - Upstairs downtown
TTITLE15=Waylon Jennings - Wild one
TTITLE16=Russ Tuff - Winds of change
EXTD=
EXTT0=
EXTT1=
EXTT2=
EXTT3=
EXTT4=
EXTT5=
EXTT6=
EXTT7=
EXTT8=
EXTT9=
EXTT10=
EXTT11=
EXTT12=
EXTT13=
EXTT14=
EXTT15=
EXTT16=
PLAYORDER=
